<?xml version="1.0" standalone="no"?>
<!DOCTYPE svg PUBLIC "-//W3C//DTD SVG 20010904//EN"
 "http://www.w3.org/TR/2001/REC-SVG-20010904/DTD/svg10.dtd">
<svg version="1.0" xmlns="http://www.w3.org/2000/svg"
 width="300.000000pt" height="220.000000pt" viewBox="0 0 300.000000 220.000000"
 preserveAspectRatio="xMidYMid meet">
<metadata>
Created by potrace 1.10, written by Peter Selinger 2001-2011
</metadata>
<g transform="translate(0.000000,220.000000) scale(0.050000,-0.050000)"
fill="#ffffff" stroke="none">
<path d="M3066 4374 c-5 -9 -5 -22 2 -29 7 -6 12 -3 12 7 0 22 480 23 516 1
14 -9 24 -5 24 8 0 18 8 18 30 -1 24 -20 30 -20 30 0 0 20 6 20 30 0 24 -20
30 -20 30 0 0 20 6 20 30 0 22 -19 30 -19 30 -1 0 13 9 18 20 11 12 -7 15 -23
9 -36 -7 -13 1 -9 16 10 22 26 34 29 52 11 17 -17 23 -17 23 3 0 22 6 22 30 2
24 -20 30 -20 30 0 0 20 6 20 30 0 24 -20 30 -20 30 0 0 20 6 20 30 0 24 -20
30 -20 30 0 0 20 6 20 30 0 24 -20 30 -20 30 0 0 20 6 20 30 0 24 -20 30 -20
30 0 0 20 6 20 30 0 22 -19 30 -19 30 -1 0 13 9 18 20 11 12 -7 15 -23 9 -36
-7 -13 1 -9 16 10 22 26 34 29 52 11 17 -17 23 -17 23 3 0 22 6 22 30 2 24
-20 30 -20 30 0 0 20 6 20 30 0 24 -20 30 -20 30 0 0 20 6 20 30 0 24 -20 30
-20 30 0 0 20 6 20 30 0 24 -20 30 -20 30 0 0 20 6 20 30 0 24 -20 30 -20 30
0 0 20 6 20 30 0 22 -19 30 -19 30 -1 0 13 9 18 20 11 12 -7 15 -23 9 -36 -7
-13 1 -9 16 10 22 26 34 29 52 11 17 -17 23 -17 23 3 0 22 6 22 30 2 24 -20
30 -20 30 0 0 20 6 20 30 0 24 -20 30 -20 30 0 0 20 6 20 30 0 24 -20 30 -20
30 0 0 20 6 20 30 0 24 -20 30 -20 30 0 0 20 6 20 30 0 24 -20 30 -20 30 0 0
20 6 20 30 0 22 -19 30 -19 30 -1 0 13 9 18 20 11 12 -7 15 -23 9 -36 -7 -13
1 -9 16 10 22 26 34 29 52 11 17 -17 23 -17 23 3 0 22 6 22 30 2 24 -20 30
-20 30 0 0 20 6 20 30 0 24 -20 30 -20 30 0 0 20 6 20 30 0 24 -20 30 -20 30
0 0 20 6 20 30 0 24 -20 30 -20 30 0 0 20 6 20 30 0 24 -20 30 -20 30 0 0 20
6 20 30 0 22 -19 30 -19 30 -1 0 13 9 18 20 11 12 -7 15 -23 9 -36 -7 -13 1
-9 16 10 22 26 34 29 52 11 17 -17 23 -17 23 3 0 22 6 22 30 2 24 -20 30 -20
30 0 0 20 6 20 30 0 22 -19 30 -19 30 -1 0 13 11 17 25 9 14 -8 18 -7 9 3 -20
22 -2914 25 -2928 3z"/>
<path d="M390 4183 c-237 -111 -274 -449 -61 -563 l51 -27 0 -657 c0 -747 -1
-743 149 -814 54 -25 91 -56 91 -75 0 -112 250 -327 380 -327 9 0 20 -223 24
-495 8 -636 37 -702 346 -764 241 -49 2302 -282 2389 -270 233 33 1057 279
1188 356 139 82 161 148 170 504 l6 301 98 34 c104 38 158 97 198 219 16 51
36 75 61 75 20 0 65 28 98 62 l62 61 0 605 0 604 58 43 c181 134 127 454 -89
525 -305 101 -534 -290 -299 -511 l66 -63 7 -483 c4 -266 4 -483 0 -483 -4 0
-24 22 -45 49 -21 26 -72 59 -113 72 -114 36 -118 47 -54 174 85 167 87 461 4
622 -30 58 -55 136 -55 171 0 192 -102 350 -258 401 -169 55 -2360 418 -2532
420 -199 1 -250 -22 -720 -330 -571 -375 -589 -396 -590 -723 l0 -194 -93 -41
c-50 -23 -103 -41 -117 -41 -14 0 -58 -36 -98 -80 l-72 -80 0 565 0 565 59 33
c323 184 28 719 -309 560z m212 -149 c123 -94 86 -291 -61 -324 -121 -26 -240
96 -210 217 27 108 187 172 271 107z m2974 -434 c1224 -205 1298 -221 1356
-310 47 -72 26 -80 -75 -28 -301 157 -784 -60 -916 -412 -167 -445 192 -953
637 -902 94 11 167 39 388 148 42 21 6 -1291 -38 -1350 -62 -84 -680 -301
-1078 -379 l-160 -31 -1130 132 c-1225 143 -1250 147 -1321 224 -42 44 -105
897 -71 942 2 3 80 -33 173 -79 286 -141 445 -113 582 103 271 425 135 1165
-231 1264 -95 26 -154 11 -380 -92 l-152 -69 0 117 c0 264 2 267 495 587 624
405 402 389 1921 135z m-3036 -668 c0 -710 -13 -660 175 -682 91 -10 125 -22
125 -44 0 -21 -15 -26 -55 -19 -30 6 -93 17 -140 24 -165 25 -165 24 -165 732
0 535 4 617 30 617 26 0 30 -83 30 -628z m5099 455 c55 -70 52 -138 -8 -198
-140 -139 -351 44 -230 198 32 41 60 53 119 53 59 0 87 -12 119 -53z m-809
-204 c276 -126 402 -505 263 -788 -255 -522 -974 -307 -973 290 1 381 381 648
710 498z m706 -782 c-6 -530 -8 -566 -45 -592 -50 -37 -66 -19 -24 27 29 33
33 104 33 605 0 394 6 561 21 546 14 -14 19 -212 15 -586z m-3800 320 c191
-191 231 -591 90 -905 -101 -226 -152 -236 -475 -95 -127 55 -255 109 -284
120 -50 19 -51 22 -18 58 114 126 120 458 12 605 -40 53 -41 57 -7 70 20 7
144 56 276 108 286 114 327 118 406 39z m2361 -310 c58 -130 115 -205 209
-273 89 -64 78 -79 -16 -21 -181 112 -271 281 -267 503 l2 150 16 -133 c8 -73
34 -175 56 -226z m-3152 34 c115 -129 67 -505 -65 -505 -57 0 -137 127 -85
136 99 16 120 27 142 75 44 97 -12 189 -116 189 -50 0 -54 52 -8 103 42 47 92
47 132 2z m4236 -426 c157 -84 115 -519 -50 -519 -6 0 -11 122 -11 270 0 149
5 270 11 270 7 0 29 -9 50 -21z"/>
<path d="M2168 3633 c-7 -18 -2 -46 11 -61 17 -21 17 -163 1 -577 -16 -395
-16 -719 -1 -1152 12 -332 16 -625 10 -651 -7 -26 -3 -53 7 -60 103 -63 112
2408 9 2511 -18 18 -27 16 -37 -10z"/>
<path d="M2987 3560 c-352 -74 -637 -445 -599 -778 70 -600 739 -819 1174
-384 476 476 69 1298 -575 1162z m369 -132 c351 -175 433 -680 155 -958 -344
-344 -898 -58 -895 461 3 402 398 668 740 497z m-756 -803 c29 -69 85 -143
161 -213 133 -123 87 -129 -52 -7 -154 135 -226 329 -197 530 l16 115 13 -160
c8 -96 31 -202 59 -265z"/>
<path d="M2960 3408 c-325 -140 -398 -618 -136 -886 292 -299 772 -111 811
318 35 395 -342 712 -675 568z m359 -67 c163 -84 263 -259 259 -453 l-3 -98
-17 113 c-37 259 -167 416 -378 458 l-70 14 66 3 c36 1 100 -16 143 -37z m-86
-74 c256 -121 325 -495 133 -719 -269 -315 -751 141 -593 560 63 167 283 243
460 159z"/>
<path d="M2993 3079 c-97 -114 -87 -294 21 -379 126 -99 266 6 266 200 0 209
-172 316 -287 179z"/>
<path d="M3663 2249 c-68 -149 -123 -278 -123 -286 0 -13 484 -85 496 -73 8 7
-217 594 -236 616 -7 8 -69 -107 -137 -257z m209 -112 c80 -194 89 -176 -77
-151 -153 23 -149 18 -93 147 23 54 50 118 60 145 25 62 30 54 110 -141z"/>
<path d="M2760 1552 c0 -322 7 -472 21 -472 12 0 453 -54 979 -120 526 -66
967 -120 979 -120 14 0 21 137 21 427 l0 428 -405 64 c-663 106 -1481 240
-1540 253 l-55 11 0 -471z m1076 180 l814 -122 6 -135 c3 -74 -1 -135 -10
-136 -9 -1 -410 56 -891 125 l-875 126 0 146 0 146 71 -14 c39 -7 437 -68 885
-136z m-39 -385 l863 -117 0 -135 c0 -95 -7 -135 -25 -135 -14 0 -400 50 -859
110 -458 61 -848 110 -865 110 -25 0 -31 28 -31 152 0 120 6 150 27 142 15 -6
416 -63 890 -127z"/>
<path d="M2070 981 c-118 -43 -466 -197 -580 -257 -127 -67 -47 -52 356 69
l378 113 293 -35 c855 -100 1175 -135 1593 -171 1208 -104 395 59 -1291 259
-584 70 -614 71 -749 22z"/>
<path d="M4514 3172 c-536 -144 -419 -1020 136 -1020 213 0 380 130 443 347
114 389 -214 770 -579 673z m302 -90 c146 -75 225 -206 235 -390 l8 -122 -18
96 c-40 217 -112 326 -267 403 -56 28 -86 51 -67 51 19 0 68 -17 109 -38z
m-61 -85 c246 -152 276 -521 57 -712 -215 -190 -573 69 -572 413 2 290 274
448 515 299z"/>
<path d="M4495 2842 c-138 -124 -65 -409 104 -409 175 0 238 308 88 426 -71
56 -114 52 -192 -17z"/>
<path d="M5380 3781 c-85 -26 -168 -75 -210 -124 l-40 -47 50 43 c80 68 173
107 296 125 96 15 102 17 34 18 -44 0 -103 -6 -130 -15z"/>
<path d="M1150 3552 c-55 -37 -131 -102 -170 -144 l-70 -77 92 83 c51 45 130
107 175 137 72 47 97 69 78 69 -3 0 -50 -31 -105 -68z"/>
<path d="M572 1718 c37 -42 171 -119 202 -117 9 0 -27 23 -80 51 -53 27 -101
63 -107 79 -6 16 -21 29 -32 29 -12 0 -4 -19 17 -42z"/>
<path d="M820 1484 l9 -114 7 98 c3 54 -1 105 -10 114 -9 9 -12 -35 -6 -98z"/>
<path d="M5345 1236 c-43 -21 -45 -32 -41 -244 l4 -222 7 210 c6 189 11 213
51 245 50 39 44 42 -21 11z"/>
<path d="M5220 569 c-25 -51 -57 -97 -73 -103 -15 -6 -27 -19 -27 -31 0 -35
60 28 114 119 28 48 46 92 41 98 -6 6 -31 -32 -55 -83z"/>
<path d="M2702 93 c4 -4 71 -12 148 -18 85 -7 116 -5 80 4 -61 16 -244 27
-228 14z"/>
</g>
</svg>
